<svg width="1288" height="1499" viewBox="0 0 1288 1499" fill="none" xmlns="http://www.w3.org/2000/svg">
<path d="M1249.26 1172.39H38.5674V1196.66H1249.26V1172.39Z" fill="#801611"/>
<path d="M230.655 1299.13H38.4424V1491.31H230.655V1299.13Z" fill="#801611"/>
<path d="M738.096 1299.13H545.884V1491.31H738.096V1299.13Z" fill="#801611"/>
<path d="M1249.38 1299.13H1057.17V1491.31H1249.38V1299.13Z" fill="#801611"/>
<path d="M98.0193 46.6582H231.493C261.154 46.6582 284.215 60.5559 300.677 88.3512L622.052 631.614C638.513 659.409 654.975 659.409 671.437 631.614L992.811 88.3512C1009.27 60.5559 1032.33 46.6582 1062 46.6582H1195.47C1249.85 46.6582 1277.04 77.2944 1277.04 138.567V746.851C1277.04 808.123 1144.11 220.885 1089.73 220.885L491.126 906.331L269.567 300.043L16.4521 746.851V138.567C16.4521 77.2944 43.6412 46.6582 98.0193 46.6582Z" fill="#801611"/>
<path d="M16.4521 103.548C16.4521 65.6214 31.201 46.6582 60.6986 46.6582H188.522V268.28V511.281V278.97V46.6582V900.004H16.4521V103.548Z" fill="#801611"/>
<path d="M281.029 103.548C281.029 65.6214 264.292 46.6582 230.819 46.6582H85.7655V268.28V511.281V278.97V46.6582V900.004H281.029V103.548Z" fill="#801611"/>
<path d="M16.4521 993.504C16.4521 1035.45 31.201 1056.42 60.6986 1056.42H188.522V811.323V542.582V799.501V1056.42V112.683H16.4521V993.504Z" fill="#801611"/>
<path d="M281.029 993.504C281.029 1035.45 264.292 1056.42 230.819 1056.42H85.7655V811.323V542.582V799.501V1056.42V112.683H281.029V993.504Z" fill="#801611"/>
<path d="M1012.46 103.548C1012.46 65.6214 1027.21 46.6582 1056.71 46.6582H1184.53V268.28V511.281V278.97V46.6582V900.004H1012.46V103.548Z" fill="#801611"/>
<path d="M1277.04 103.548C1277.04 65.6214 1260.3 46.6582 1226.83 46.6582H1081.77V268.28V511.281V278.97V46.6582V900.004H1277.04V103.548Z" fill="#801611"/>
<path d="M1012.46 993.504C1012.46 1035.45 1027.21 1056.42 1056.71 1056.42H1184.53V811.323V542.582V799.501V1056.42V112.683H1012.46V993.504Z" fill="#801611"/>
<path d="M1277.04 993.504C1277.04 1035.45 1260.3 1056.42 1226.83 1056.42H1081.77V811.323V542.582V799.501V1056.42V112.683H1277.04V993.504Z" fill="#801611"/>
<path d="M532.93 674.733C532.93 659.669 545.589 652.138 570.907 652.138H680.618V740.159V836.671V744.405V652.138V991.06H532.93V674.733Z" fill="#801611"/>
<path d="M760.019 674.733C760.019 659.669 745.653 652.138 716.922 652.138H592.422V740.159V836.671V744.405V652.138V991.06H760.019V674.733Z" fill="#801611"/>
<path d="M540.481 1028.2C540.481 1044.85 552.99 1053.18 578.007 1053.18H686.416V955.839V849.103V951.143V1053.18V678.361H540.481V1028.2Z" fill="#801611"/>
<path d="M764.873 1028.2C764.873 1044.85 750.678 1053.18 722.289 1053.18H599.267V955.839V849.103V951.143V1053.18V678.361H764.873V1028.2Z" fill="#801611"/>
<path d="M248.053 207.113C236.414 173.31 237.054 154.185 249.973 149.737L305.953 130.461L373.966 327.985L448.54 544.564L377.246 337.513L305.953 130.461L567.834 891.02L492.476 916.968L248.053 207.113Z" fill="#801611"/>
<path d="M363.926 167.216C352.286 133.413 339.137 119.036 324.477 124.083L260.951 145.957L328.964 343.481L403.538 560.06L332.244 353.009L260.951 145.957L522.832 906.516L608.348 877.07L363.926 167.216Z" fill="#801611"/>
<path d="M521.169 1000.3C534.042 1037.68 546.937 1054.15 559.855 1049.7L615.836 1030.43L540.618 811.982L458.145 572.461L536.99 801.445L615.836 1030.43L326.214 189.307L250.856 215.255L521.169 1000.3Z" fill="#801611"/>
<path d="M637.042 960.403C649.914 997.786 649.02 1019 634.36 1024.05L570.833 1045.92L495.616 827.477L413.143 587.956L491.988 816.94L570.833 1045.92L281.212 204.802L366.728 175.356L637.042 960.403Z" fill="#801611"/>
<path d="M323.031 132.406C311.392 98.6035 312.032 79.478 324.95 75.0298L380.93 55.7543L448.943 253.278L523.517 469.857L452.224 262.806L380.93 55.7543L642.812 816.313L567.454 842.261L323.031 132.406Z" fill="#801611"/>
<path d="M438.903 92.5086C427.264 58.706 414.114 44.3286 399.454 49.3764L335.928 71.2502L403.941 268.774L478.515 485.353L407.222 278.302L335.928 71.2502L597.81 831.809L683.326 802.363L438.903 92.5086Z" fill="#801611"/>
<path d="M596.147 925.594C609.019 962.977 621.914 979.445 634.833 974.997L690.813 955.721L615.596 737.275L533.122 497.754L611.968 726.738L690.813 955.721L401.192 114.6L325.834 140.548L596.147 925.594Z" fill="#801611"/>
<path d="M712.019 885.696C724.891 923.079 723.997 944.294 709.337 949.342L645.811 971.216L570.594 752.77L488.12 513.249L566.966 742.233L645.811 971.216L356.19 130.095L441.706 100.649L712.019 885.696Z" fill="#801611"/>
<path d="M973.321 132.406C984.96 98.6035 984.32 79.478 971.401 75.0298L915.421 55.7543L847.408 253.278L772.834 469.857L844.128 262.806L915.421 55.7543L653.54 816.313L728.898 842.261L973.321 132.406Z" fill="#801611"/>
<path d="M857.448 92.5086C869.088 58.706 882.237 44.3286 896.897 49.3764L960.423 71.2502L892.41 268.774L817.836 485.353L889.13 278.302L960.423 71.2502L698.542 831.809L613.026 802.363L857.448 92.5086Z" fill="#801611"/>
<path d="M700.205 925.594C687.333 962.977 674.437 979.445 661.519 974.997L605.538 955.721L680.756 737.275L763.229 497.754L684.384 726.738L605.538 955.721L895.16 114.6L970.518 140.548L700.205 925.594Z" fill="#801611"/>
<path d="M584.333 885.696C571.46 923.079 572.354 944.294 587.014 949.342L650.541 971.216L725.758 752.77L808.231 513.249L729.386 742.233L650.541 971.216L940.162 130.095L854.646 100.649L584.333 885.696Z" fill="#801611"/>
<path d="M894.046 46.6582C887.583 46.6582 884.351 53.4897 884.351 67.1526V126.359H922.122H963.537H923.944H884.351H1029.79V46.6582L894.046 46.6582Z" fill="#801611"/>
<path d="M894.046 169.207C887.583 169.207 884.351 161.455 884.351 145.95V78.7634H922.122H963.537H923.944H884.351H1029.79V169.207H894.046Z" fill="#801611"/>
<path d="M1045.72 46.6582C1052.87 46.6582 1056.45 53.4897 1056.45 67.1526V126.359L1014.67 126.359L968.872 126.359L1012.66 126.359L1056.45 126.359L895.604 126.359V46.6582L1045.72 46.6582Z" fill="#801611"/>
<path d="M1045.72 169.207C1052.87 169.207 1056.45 161.455 1056.45 145.95V78.7634L1014.67 78.7634L968.872 78.7634L1012.66 78.7634L1056.45 78.7634L895.604 78.7634V169.207L1045.72 169.207Z" fill="#801611"/>
<path d="M249.46 46.6582C242.997 46.6582 239.765 53.4897 239.765 67.1526L239.765 126.359H277.536H318.951H279.358H239.765H385.202L385.202 46.6582L249.46 46.6582Z" fill="#801611"/>
<path d="M249.46 169.207C242.997 169.207 239.765 161.455 239.765 145.95L239.765 78.7634H277.536H318.951H279.358H239.765H385.202L385.202 169.207H249.46Z" fill="#801611"/>
<path d="M401.138 46.6582C408.286 46.6582 411.86 53.4897 411.86 67.1526L411.86 126.359L370.088 126.359L324.286 126.359L368.073 126.359L411.86 126.359L251.018 126.359L251.018 46.6582L401.138 46.6582Z" fill="#801611"/>
<path d="M401.138 169.207C408.286 169.207 411.86 161.455 411.86 145.95L411.86 78.7634L370.088 78.7634L324.286 78.7634L368.073 78.7634L411.86 78.7634L251.018 78.7634L251.018 169.207L401.138 169.207Z" fill="#801611"/>
<path d="M1052.34 207.113C1063.98 173.31 1063.34 154.185 1050.42 149.737L994.444 130.461L926.431 327.985L851.857 544.564L923.15 337.513L994.444 130.461L732.562 891.02L807.92 916.968L1052.34 207.113Z" fill="#801611"/>
<path d="M936.471 167.216C948.11 133.413 961.26 119.036 975.92 124.083L1039.45 145.957L971.433 343.481L896.859 560.06L968.152 353.009L1039.45 145.957L777.564 906.516L692.048 877.07L936.471 167.216Z" fill="#801611"/>
<path d="M779.227 1000.3C766.355 1037.68 753.46 1054.15 740.541 1049.7L684.561 1030.43L759.778 811.982L842.252 572.461L763.406 801.445L684.561 1030.43L974.182 189.307L1049.54 215.255L779.227 1000.3Z" fill="#801611"/>
<path d="M663.355 960.403C650.483 997.786 651.377 1019 666.037 1024.05L729.563 1045.92L804.78 827.477L887.254 587.956L808.408 816.94L729.563 1045.92L1019.18 204.802L933.668 175.356L663.355 960.403Z" fill="#801611"/>
</svg>
