<svg width="2000" height="2000" viewBox="0 0 2000 2000" fill="none" xmlns="http://www.w3.org/2000/svg">
<g clip-path="url(#clip0_6602_51)">
<path d="M1586 0H414C185.354 0 0 185.354 0 414V1586C0 1814.65 185.354 2000 414 2000H1586C1814.65 2000 2000 1814.65 2000 1586V414C2000 185.354 1814.65 0 1586 0Z" fill="#FBFBFB"/>
<path d="M1605.26 1423.39H394.567V1447.66H1605.26V1423.39Z" fill="#801611"/>
<path d="M586.655 1550.13H394.442V1742.31H586.655V1550.13Z" fill="#801611"/>
<path d="M1094.1 1550.13H901.884V1742.31H1094.1V1550.13Z" fill="#801611"/>
<path d="M1605.38 1550.13H1413.17V1742.31H1605.38V1550.13Z" fill="#801611"/>
<path d="M454.019 297.658H587.492C617.153 297.658 640.215 311.556 656.676 339.351L978.051 882.614C994.513 910.409 1010.97 910.409 1027.44 882.614L1348.81 339.351C1365.27 311.556 1388.33 297.658 1417.99 297.658H1551.47C1605.85 297.658 1633.04 328.294 1633.04 389.567V997.851C1633.04 1059.12 1500.11 471.885 1445.73 471.885L847.126 1157.33L625.566 551.043L372.452 997.851V389.567C372.452 328.294 399.641 297.658 454.019 297.658Z" fill="#801611"/>
<path d="M372.452 354.548C372.452 316.621 387.2 297.658 416.698 297.658H544.521V519.28V762.281V529.97V297.658V1151H372.452V354.548Z" fill="#801611"/>
<path d="M637.029 354.548C637.029 316.621 620.292 297.658 586.818 297.658H441.765V519.28V762.281V529.97V297.658V1151H637.029V354.548Z" fill="#801611"/>
<path d="M372.452 1244.5C372.452 1286.45 387.2 1307.42 416.698 1307.42H544.521V1062.32V793.582V1050.5V1307.42V363.683H372.452V1244.5Z" fill="#801611"/>
<path d="M637.029 1244.5C637.029 1286.45 620.292 1307.42 586.818 1307.42H441.765V1062.32V793.582V1050.5V1307.42V363.683H637.029V1244.5Z" fill="#801611"/>
<path d="M1368.46 354.548C1368.46 316.621 1383.21 297.658 1412.71 297.658H1540.53V519.28V762.281V529.97V297.658V1151H1368.46V354.548Z" fill="#801611"/>
<path d="M1633.04 354.548C1633.04 316.621 1616.3 297.658 1582.82 297.658H1437.77V519.28V762.281V529.97V297.658V1151H1633.04V354.548Z" fill="#801611"/>
<path d="M1368.46 1244.5C1368.46 1286.45 1383.21 1307.42 1412.71 1307.42H1540.53V1062.32V793.582V1050.5V1307.42V363.683H1368.46V1244.5Z" fill="#801611"/>
<path d="M1633.04 1244.5C1633.04 1286.45 1616.3 1307.42 1582.82 1307.42H1437.77V1062.32V793.582V1050.5V1307.42V363.683H1633.04V1244.5Z" fill="#801611"/>
<path d="M888.93 925.733C888.93 910.669 901.589 903.138 926.907 903.138H1036.62V991.159V1087.67V995.405V903.138V1242.06H888.93V925.733Z" fill="#801611"/>
<path d="M1116.02 925.733C1116.02 910.669 1101.65 903.138 1072.92 903.138H948.422V991.159V1087.67V995.405V903.138V1242.06H1116.02V925.733Z" fill="#801611"/>
<path d="M896.481 1279.2C896.481 1295.85 908.99 1304.18 934.007 1304.18H1042.42V1206.84V1100.1V1202.14V1304.18V929.361H896.481V1279.2Z" fill="#801611"/>
<path d="M1120.87 1279.2C1120.87 1295.85 1106.68 1304.18 1078.29 1304.18H955.267V1206.84V1100.1V1202.14V1304.18V929.361H1120.87V1279.2Z" fill="#801611"/>
<path d="M604.053 458.113C592.414 424.31 593.054 405.185 605.973 400.737L661.953 381.461L729.966 578.985L804.54 795.564L733.246 588.513L661.953 381.461L923.834 1142.02L848.476 1167.97L604.053 458.113Z" fill="#801611"/>
<path d="M719.926 418.216C708.286 384.413 695.137 370.036 680.477 375.083L616.951 396.957L684.964 594.481L759.538 811.06L688.244 604.009L616.951 396.957L878.832 1157.52L964.348 1128.07L719.926 418.216Z" fill="#801611"/>
<path d="M877.17 1251.3C890.042 1288.68 902.938 1305.15 915.856 1300.7L971.836 1281.43L896.619 1062.98L814.146 823.461L892.991 1052.44L971.836 1281.43L682.215 440.307L606.857 466.255L877.17 1251.3Z" fill="#801611"/>
<path d="M993.042 1211.4C1005.91 1248.79 1005.02 1270 990.36 1275.05L926.834 1296.92L851.617 1078.48L769.144 838.956L847.989 1067.94L926.834 1296.92L637.213 455.802L722.729 426.356L993.042 1211.4Z" fill="#801611"/>
<path d="M679.03 383.406C667.391 349.603 668.031 330.478 680.949 326.03L736.93 306.754L804.943 504.278L879.517 720.857L808.223 513.806L736.93 306.754L998.811 1067.31L923.453 1093.26L679.03 383.406Z" fill="#801611"/>
<path d="M794.902 343.509C783.263 309.706 770.114 295.329 755.454 300.376L691.927 322.25L759.94 519.774L834.515 736.353L763.221 529.302L691.927 322.25L953.809 1082.81L1039.32 1053.36L794.902 343.509Z" fill="#801611"/>
<path d="M952.147 1176.59C965.019 1213.98 977.915 1230.44 990.833 1226L1046.81 1206.72L971.596 988.275L889.123 748.754L967.968 977.738L1046.81 1206.72L757.192 365.6L681.834 391.548L952.147 1176.59Z" fill="#801611"/>
<path d="M1068.02 1136.7C1080.89 1174.08 1080 1195.29 1065.34 1200.34L1001.81 1222.22L926.594 1003.77L844.121 764.249L922.966 993.233L1001.81 1222.22L712.19 381.095L797.706 351.649L1068.02 1136.7Z" fill="#801611"/>
<path d="M1329.32 383.406C1340.96 349.603 1340.32 330.478 1327.4 326.03L1271.42 306.754L1203.41 504.278L1128.83 720.857L1200.13 513.806L1271.42 306.754L1009.54 1067.31L1084.9 1093.26L1329.32 383.406Z" fill="#801611"/>
<path d="M1213.45 343.509C1225.09 309.706 1238.24 295.329 1252.9 300.376L1316.42 322.25L1248.41 519.774L1173.84 736.353L1245.13 529.302L1316.42 322.25L1054.54 1082.81L969.027 1053.36L1213.45 343.509Z" fill="#801611"/>
<path d="M1056.2 1176.59C1043.33 1213.98 1030.44 1230.44 1017.52 1226L961.538 1206.72L1036.76 988.275L1119.23 748.754L1040.38 977.738L961.538 1206.72L1251.16 365.6L1326.52 391.548L1056.2 1176.59Z" fill="#801611"/>
<path d="M940.333 1136.7C927.46 1174.08 928.354 1195.29 943.014 1200.34L1006.54 1222.22L1081.76 1003.77L1164.23 764.249L1085.39 993.233L1006.54 1222.22L1296.16 381.095L1210.65 351.649L940.333 1136.7Z" fill="#801611"/>
<path d="M1250.05 297.658C1243.58 297.658 1240.35 304.49 1240.35 318.153V377.359H1278.12H1319.54H1279.94H1240.35H1385.79V297.658H1250.05Z" fill="#801611"/>
<path d="M1250.05 420.207C1243.58 420.207 1240.35 412.455 1240.35 396.95V329.763H1278.12H1319.54H1279.94H1240.35H1385.79V420.207H1250.05Z" fill="#801611"/>
<path d="M1401.72 297.658C1408.87 297.658 1412.45 304.49 1412.45 318.153V377.359H1370.67H1324.87H1368.66H1412.45L1251.6 377.359V297.658L1401.72 297.658Z" fill="#801611"/>
<path d="M1401.72 420.207C1408.87 420.207 1412.45 412.455 1412.45 396.95V329.763L1370.67 329.763H1324.87H1368.66L1412.45 329.763L1251.6 329.763V420.207L1401.72 420.207Z" fill="#801611"/>
<path d="M605.46 297.658C598.996 297.658 595.764 304.49 595.764 318.153V377.359H633.536H674.951H635.358H595.764H741.202V297.658H605.46Z" fill="#801611"/>
<path d="M605.46 420.207C598.996 420.207 595.764 412.455 595.764 396.95V329.763H633.536H674.951H635.358H595.764H741.202L741.202 420.207H605.46Z" fill="#801611"/>
<path d="M757.137 297.658C764.285 297.658 767.86 304.49 767.86 318.153V377.359H726.087H680.285H724.072H767.86L607.017 377.359V297.658L757.137 297.658Z" fill="#801611"/>
<path d="M757.137 420.207C764.285 420.207 767.86 412.455 767.86 396.95V329.763L726.087 329.763H680.285H724.072L767.86 329.763L607.017 329.763V420.207L757.137 420.207Z" fill="#801611"/>
<path d="M1408.34 458.113C1419.98 424.31 1419.34 405.185 1406.42 400.737L1350.44 381.461L1282.43 578.985L1207.86 795.564L1279.15 588.513L1350.44 381.461L1088.56 1142.02L1163.92 1167.97L1408.34 458.113Z" fill="#801611"/>
<path d="M1292.47 418.216C1304.11 384.413 1317.26 370.036 1331.92 375.083L1395.45 396.957L1327.43 594.481L1252.86 811.06L1324.15 604.009L1395.45 396.957L1133.56 1157.52L1048.05 1128.07L1292.47 418.216Z" fill="#801611"/>
<path d="M1135.23 1251.3C1122.35 1288.68 1109.46 1305.15 1096.54 1300.7L1040.56 1281.43L1115.78 1062.98L1198.25 823.461L1119.41 1052.44L1040.56 1281.43L1330.18 440.307L1405.54 466.255L1135.23 1251.3Z" fill="#801611"/>
<path d="M1019.35 1211.4C1006.48 1248.79 1007.38 1270 1022.04 1275.05L1085.56 1296.92L1160.78 1078.48L1243.25 838.956L1164.41 1067.94L1085.56 1296.92L1375.18 455.802L1289.67 426.356L1019.35 1211.4Z" fill="#801611"/>
</g>
<defs>
<clipPath id="clip0_6602_51">
<rect width="2000" height="2000" fill="white"/>
</clipPath>
</defs>
</svg>
