<svg width="1288" height="1499" viewBox="0 0 1288 1499" fill="none" xmlns="http://www.w3.org/2000/svg">
<path d="M1249.26 1172.39H38.5674V1196.66H1249.26V1172.39Z" fill="#FBFBFB"/>
<path d="M230.655 1299.13H38.4424V1491.31H230.655V1299.13Z" fill="#FBFBFB"/>
<path d="M738.096 1299.13H545.884V1491.31H738.096V1299.13Z" fill="#FBFBFB"/>
<path d="M1249.38 1299.13H1057.17V1491.31H1249.38V1299.13Z" fill="#FBFBFB"/>
<path d="M98.0193 46.6582H231.493C261.154 46.6582 284.215 60.5559 300.677 88.3512L622.052 631.614C638.513 659.409 654.975 659.409 671.437 631.614L992.811 88.3512C1009.27 60.5559 1032.33 46.6582 1062 46.6582H1195.47C1249.85 46.6582 1277.04 77.2944 1277.04 138.567V746.851C1277.04 808.123 1144.11 220.885 1089.73 220.885L491.126 906.331L269.567 300.043L16.4521 746.851V138.567C16.4521 77.2944 43.6412 46.6582 98.0193 46.6582Z" fill="#FBFBFB"/>
<path d="M16.4521 103.548C16.4521 65.6214 31.201 46.6582 60.6986 46.6582H188.522V268.28V511.281V278.97V46.6582V900.004H16.4521V103.548Z" fill="#FBFBFB"/>
<path d="M281.029 103.548C281.029 65.6214 264.292 46.6582 230.819 46.6582H85.7655V268.28V511.281V278.97V46.6582V900.004H281.029V103.548Z" fill="#FBFBFB"/>
<path d="M16.4521 993.504C16.4521 1035.45 31.201 1056.42 60.6986 1056.42H188.522V811.323V542.582V799.501V1056.42V112.683H16.4521V993.504Z" fill="#FBFBFB"/>
<path d="M281.029 993.504C281.029 1035.45 264.292 1056.42 230.819 1056.42H85.7655V811.323V542.582V799.501V1056.42V112.683H281.029V993.504Z" fill="#FBFBFB"/>
<path d="M1012.46 103.548C1012.46 65.6214 1027.21 46.6582 1056.71 46.6582H1184.53V268.28V511.281V278.97V46.6582V900.004H1012.46V103.548Z" fill="#FBFBFB"/>
<path d="M1277.04 103.548C1277.04 65.6214 1260.3 46.6582 1226.83 46.6582H1081.77V268.28V511.281V278.97V46.6582V900.004H1277.04V103.548Z" fill="#FBFBFB"/>
<path d="M1012.46 993.504C1012.46 1035.45 1027.21 1056.42 1056.71 1056.42H1184.53V811.323V542.582V799.501V1056.42V112.683H1012.46V993.504Z" fill="#FBFBFB"/>
<path d="M1277.04 993.504C1277.04 1035.45 1260.3 1056.42 1226.83 1056.42H1081.77V811.323V542.582V799.501V1056.42V112.683H1277.04V993.504Z" fill="#FBFBFB"/>
<path d="M532.93 674.733C532.93 659.67 545.589 652.139 570.907 652.139H680.618V740.16V836.672V744.406V652.139V991.061H532.93V674.733Z" fill="#FBFBFB"/>
<path d="M760.019 674.733C760.019 659.67 745.653 652.139 716.922 652.139H592.422V740.16V836.672V744.406V652.139V991.061H760.019V674.733Z" fill="#FBFBFB"/>
<path d="M540.481 1028.2C540.481 1044.85 552.99 1053.18 578.007 1053.18H686.416V955.839V849.103V951.143V1053.18V678.361H540.481V1028.2Z" fill="#FBFBFB"/>
<path d="M764.873 1028.2C764.873 1044.85 750.678 1053.18 722.289 1053.18H599.267V955.839V849.103V951.143V1053.18V678.361H764.873V1028.2Z" fill="#FBFBFB"/>
<path d="M248.053 207.112C236.414 173.31 237.054 154.184 249.973 149.736L305.953 130.46L373.966 327.984L448.54 544.563L377.246 337.512L305.953 130.46L567.834 891.019L492.476 916.967L248.053 207.112Z" fill="#FBFBFB"/>
<path d="M363.926 167.214C352.286 133.411 339.137 119.034 324.477 124.081L260.951 145.955L328.964 343.479L403.538 560.058L332.244 353.007L260.951 145.955L522.832 906.514L608.348 877.068L363.926 167.214Z" fill="#FBFBFB"/>
<path d="M521.169 1000.3C534.042 1037.68 546.937 1054.15 559.855 1049.7L615.836 1030.43L540.618 811.981L458.145 572.46L536.99 801.444L615.836 1030.43L326.214 189.306L250.856 215.254L521.169 1000.3Z" fill="#FBFBFB"/>
<path d="M637.042 960.402C649.914 997.785 649.02 1019 634.36 1024.05L570.833 1045.92L495.616 827.476L413.143 587.955L491.988 816.939L570.833 1045.92L281.212 204.801L366.728 175.355L637.042 960.402Z" fill="#FBFBFB"/>
<path d="M323.031 132.405C311.392 98.6025 312.032 79.4771 324.95 75.0289L380.93 55.7533L448.943 253.277L523.517 469.856L452.224 262.805L380.93 55.7533L642.812 816.312L567.454 842.26L323.031 132.405Z" fill="#FBFBFB"/>
<path d="M438.903 92.5066C427.264 58.704 414.114 44.3266 399.454 49.3745L335.928 71.2483L403.941 268.772L478.515 485.351L407.222 278.3L335.928 71.2483L597.81 831.807L683.326 802.361L438.903 92.5066Z" fill="#FBFBFB"/>
<path d="M596.147 925.593C609.019 962.976 621.914 979.444 634.833 974.996L690.813 955.72L615.596 737.274L533.122 497.753L611.968 726.737L690.813 955.72L401.192 114.599L325.834 140.547L596.147 925.593Z" fill="#FBFBFB"/>
<path d="M712.019 885.695C724.891 923.078 723.997 944.293 709.337 949.341L645.811 971.215L570.594 752.769L488.12 513.248L566.966 742.232L645.811 971.215L356.19 130.094L441.706 100.648L712.019 885.695Z" fill="#FBFBFB"/>
<path d="M973.322 132.405C984.961 98.6025 984.321 79.4771 971.402 75.0289L915.422 55.7533L847.409 253.277L772.835 469.856L844.129 262.805L915.422 55.7533L653.541 816.312L728.899 842.26L973.322 132.405Z" fill="#FBFBFB"/>
<path d="M857.449 92.5086C869.089 58.706 882.238 44.3286 896.898 49.3764L960.424 71.2502L892.411 268.774L817.837 485.353L889.131 278.302L960.424 71.2502L698.543 831.809L613.027 802.363L857.449 92.5086Z" fill="#FBFBFB"/>
<path d="M700.205 925.593C687.333 962.976 674.437 979.444 661.519 974.996L605.538 955.72L680.756 737.274L763.229 497.753L684.384 726.737L605.538 955.72L895.16 114.599L970.518 140.547L700.205 925.593Z" fill="#FBFBFB"/>
<path d="M584.333 885.695C571.46 923.078 572.354 944.293 587.014 949.341L650.541 971.215L725.758 752.769L808.231 513.248L729.386 742.232L650.541 971.215L940.162 130.094L854.646 100.648L584.333 885.695Z" fill="#FBFBFB"/>
<path d="M894.046 46.6582C887.583 46.6582 884.351 53.4897 884.351 67.1526V126.359H922.122H963.537H923.944H884.351H1029.79V46.6582L894.046 46.6582Z" fill="#FBFBFB"/>
<path d="M894.046 169.207C887.583 169.207 884.351 161.455 884.351 145.95V78.7634H922.122H963.537H923.944H884.351H1029.79V169.207H894.046Z" fill="#FBFBFB"/>
<path d="M1045.72 46.6582C1052.87 46.6582 1056.45 53.4897 1056.45 67.1526V126.359L1014.67 126.359L968.872 126.359L1012.66 126.359L1056.45 126.359L895.604 126.359V46.6582L1045.72 46.6582Z" fill="#FBFBFB"/>
<path d="M1045.72 169.207C1052.87 169.207 1056.45 161.455 1056.45 145.95V78.7634L1014.67 78.7634L968.872 78.7634L1012.66 78.7634L1056.45 78.7634L895.604 78.7634V169.207L1045.72 169.207Z" fill="#FBFBFB"/>
<path d="M249.46 46.6582C242.997 46.6582 239.765 53.4897 239.765 67.1526L239.765 126.359H277.536H318.951H279.358H239.765H385.202L385.202 46.6582L249.46 46.6582Z" fill="#FBFBFB"/>
<path d="M249.46 169.207C242.997 169.207 239.765 161.455 239.765 145.95L239.765 78.7634H277.536H318.951H279.358H239.765H385.202L385.202 169.207H249.46Z" fill="#FBFBFB"/>
<path d="M401.138 46.6582C408.286 46.6582 411.86 53.4897 411.86 67.1526L411.86 126.359L370.088 126.359L324.286 126.359L368.073 126.359L411.86 126.359L251.018 126.359L251.018 46.6582L401.138 46.6582Z" fill="#FBFBFB"/>
<path d="M401.138 169.207C408.286 169.207 411.86 161.455 411.86 145.95L411.86 78.7634L370.088 78.7634L324.286 78.7634L368.073 78.7634L411.86 78.7634L251.018 78.7634L251.018 169.207L401.138 169.207Z" fill="#FBFBFB"/>
<path d="M1052.34 207.112C1063.98 173.31 1063.34 154.184 1050.42 149.736L994.445 130.46L926.432 327.984L851.858 544.563L923.151 337.512L994.445 130.46L732.563 891.019L807.921 916.967L1052.34 207.112Z" fill="#FBFBFB"/>
<path d="M936.472 167.216C948.111 133.413 961.261 119.036 975.921 124.083L1039.45 145.957L971.434 343.481L896.86 560.06L968.153 353.009L1039.45 145.957L777.565 906.516L692.049 877.07L936.472 167.216Z" fill="#FBFBFB"/>
<path d="M779.227 1000.3C766.355 1037.68 753.46 1054.15 740.541 1049.7L684.561 1030.43L759.778 811.981L842.252 572.46L763.406 801.444L684.561 1030.43L974.182 189.306L1049.54 215.254L779.227 1000.3Z" fill="#FBFBFB"/>
<path d="M663.355 960.402C650.483 997.785 651.377 1019 666.037 1024.05L729.563 1045.92L804.78 827.476L887.254 587.955L808.408 816.939L729.563 1045.92L1019.18 204.801L933.668 175.355L663.355 960.402Z" fill="#FBFBFB"/>
</svg>
